<svg width="19" height="18" viewBox="0 0 19 18" fill="none" xmlns="http://www.w3.org/2000/svg">
<mask id="mask0_2052_139" style="mask-type:alpha" maskUnits="userSpaceOnUse" x="0" y="0" width="19" height="18">
<rect x="0.883362" y="0.0278778" width="17.7276" height="17.7276" fill="#D9D9D9"/>
</mask>
<g mask="url(#mask0_2052_139)">
<path d="M8.58377 11.292H10.8736L11.1506 12.1414C11.1998 12.2768 11.2798 12.3846 11.3906 12.4646C11.5014 12.5446 11.6245 12.5846 11.76 12.5846C11.9939 12.5846 12.1754 12.4892 12.3047 12.2984C12.434 12.1076 12.4617 11.9075 12.3878 11.6982L10.652 6.80468C10.6027 6.66927 10.5166 6.55847 10.3935 6.47229C10.2703 6.38612 10.1349 6.34303 9.9872 6.34303H9.50708C9.35935 6.34303 9.22393 6.38612 9.10082 6.47229C8.97771 6.55847 8.89154 6.66927 8.84229 6.80468L7.088 11.7352C7.01414 11.9444 7.04184 12.1383 7.1711 12.3168C7.30037 12.4954 7.47579 12.5846 7.69739 12.5846C7.83281 12.5846 7.95592 12.5446 8.06671 12.4646C8.17751 12.3846 8.25753 12.2768 8.30677 12.1414L8.58377 11.292ZM8.93462 10.2209L9.74714 7.78339L10.5412 10.2209H8.93462ZM8.26984 2.24353C8.06056 2.24353 7.88513 2.17274 7.74355 2.03117C7.60198 1.8896 7.53119 1.71417 7.53119 1.50488C7.53119 1.2956 7.60198 1.12017 7.74355 0.978597C7.88513 0.837022 8.06056 0.766235 8.26984 0.766235H11.2244C11.4337 0.766235 11.6091 0.837022 11.7507 0.978597C11.8923 1.12017 11.9631 1.2956 11.9631 1.50488C11.9631 1.71417 11.8923 1.8896 11.7507 2.03117C11.6091 2.17274 11.4337 2.24353 11.2244 2.24353H8.26984ZM9.74714 16.2778C8.83614 16.2778 7.97746 16.1024 7.1711 15.7516C6.36474 15.4007 5.65995 14.9237 5.05672 14.3204C4.45349 13.7172 3.97645 13.0124 3.62559 12.206C3.27473 11.3997 3.0993 10.541 3.0993 9.63001C3.0993 8.71901 3.27473 7.86034 3.62559 7.05398C3.97645 6.24762 4.45349 5.54283 5.05672 4.9396C5.65995 4.33637 6.36474 3.85932 7.1711 3.50847C7.97746 3.15761 8.83614 2.98218 9.74714 2.98218C10.5104 2.98218 11.2429 3.10529 11.9446 3.3515C12.6463 3.59772 13.305 3.95473 13.9205 4.42254L14.4376 3.90549C14.573 3.77007 14.7453 3.70236 14.9546 3.70236C15.1639 3.70236 15.3362 3.77007 15.4717 3.90549C15.6071 4.04091 15.6748 4.21326 15.6748 4.42254C15.6748 4.63183 15.6071 4.80418 15.4717 4.9396L14.9546 5.45665C15.4224 6.07219 15.7794 6.73082 16.0256 7.43254C16.2719 8.13425 16.395 8.86674 16.395 9.63001C16.395 10.541 16.2195 11.3997 15.8687 12.206C15.5178 13.0124 15.0408 13.7172 14.4376 14.3204C13.8343 14.9237 13.1295 15.4007 12.3232 15.7516C11.5168 16.1024 10.6581 16.2778 9.74714 16.2778Z" fill="#3366FF"/>
</g>
</svg>
